<svg viewBox="0 0 900 520" xmlns="http://www.w3.org/2000/svg" font-family="system-ui, -apple-system, sans-serif">
  <rect x="0" y="0" width="900" height="520" fill="#0f0f0f"/>

  <!-- Title -->
  <text x="450" y="40" text-anchor="middle" font-size="26" font-weight="700" fill="#e5e5e5">32 STAGES, <tspan fill="#4ade80">~12.5A EACH</tspan></text>
  <text x="450" y="60" text-anchor="middle" font-size="13" fill="#999">ROG Dominus Extreme — how the VRM spreads CPU load</text>

  <!-- CPU die -->
  <rect x="355" y="78" width="190" height="54" rx="10" fill="#1c1414" stroke="#f87171" stroke-width="2.2"/>
  <text x="450" y="111" text-anchor="middle" font-size="17" font-weight="700" fill="#f0f0f0">Xeon W-3175X</text>
  <text x="450" y="150" text-anchor="middle" font-size="13" fill="#e8a96a">~400A draw (400W @ ~1.0V)</text>

  <!-- Fan-out lines to top row -->
  <g stroke="#777" stroke-width="1.2" opacity="0.4">
    <line x1="450" y1="132" x2="74"  y2="180"/>
    <line x1="450" y1="132" x2="124" y2="180"/>
    <line x1="450" y1="132" x2="174" y2="180"/>
    <line x1="450" y1="132" x2="224" y2="180"/>
    <line x1="450" y1="132" x2="274" y2="180"/>
    <line x1="450" y1="132" x2="324" y2="180"/>
    <line x1="450" y1="132" x2="374" y2="180"/>
    <line x1="450" y1="132" x2="424" y2="180"/>
    <line x1="450" y1="132" x2="474" y2="180"/>
    <line x1="450" y1="132" x2="524" y2="180"/>
    <line x1="450" y1="132" x2="574" y2="180"/>
    <line x1="450" y1="132" x2="624" y2="180"/>
    <line x1="450" y1="132" x2="674" y2="180"/>
    <line x1="450" y1="132" x2="724" y2="180"/>
    <line x1="450" y1="132" x2="774" y2="180"/>
    <line x1="450" y1="132" x2="824" y2="180"/>
  </g>

  <!-- Power stages: 2 rows of 16 = 32. Each block = IR3555, green sliver = ~21% utilisation -->
  <g>
    <!-- Row 1 -->
    <g>
      <rect x="52"  y="180" width="44" height="42" rx="6" fill="#161616" stroke="#3f3f3f" stroke-width="1.5"/><rect x="54"  y="211" width="40" height="9" rx="2" fill="#4ade80" opacity="0.85"/><text x="74"  y="197" text-anchor="middle" font-size="7.5" fill="#cfcfcf">IR3555</text>
      <rect x="102" y="180" width="44" height="42" rx="6" fill="#161616" stroke="#3f3f3f" stroke-width="1.5"/><rect x="104" y="211" width="40" height="9" rx="2" fill="#4ade80" opacity="0.85"/><text x="124" y="197" text-anchor="middle" font-size="7.5" fill="#cfcfcf">IR3555</text>
      <rect x="152" y="180" width="44" height="42" rx="6" fill="#161616" stroke="#3f3f3f" stroke-width="1.5"/><rect x="154" y="211" width="40" height="9" rx="2" fill="#4ade80" opacity="0.85"/><text x="174" y="197" text-anchor="middle" font-size="7.5" fill="#cfcfcf">IR3555</text>
      <rect x="202" y="180" width="44" height="42" rx="6" fill="#161616" stroke="#3f3f3f" stroke-width="1.5"/><rect x="204" y="211" width="40" height="9" rx="2" fill="#4ade80" opacity="0.85"/><text x="224" y="197" text-anchor="middle" font-size="7.5" fill="#cfcfcf">IR3555</text>
      <rect x="252" y="180" width="44" height="42" rx="6" fill="#161616" stroke="#3f3f3f" stroke-width="1.5"/><rect x="254" y="211" width="40" height="9" rx="2" fill="#4ade80" opacity="0.85"/><text x="274" y="197" text-anchor="middle" font-size="7.5" fill="#cfcfcf">IR3555</text>
      <rect x="302" y="180" width="44" height="42" rx="6" fill="#161616" stroke="#3f3f3f" stroke-width="1.5"/><rect x="304" y="211" width="40" height="9" rx="2" fill="#4ade80" opacity="0.85"/><text x="324" y="197" text-anchor="middle" font-size="7.5" fill="#cfcfcf">IR3555</text>
      <rect x="352" y="180" width="44" height="42" rx="6" fill="#161616" stroke="#3f3f3f" stroke-width="1.5"/><rect x="354" y="211" width="40" height="9" rx="2" fill="#4ade80" opacity="0.85"/><text x="374" y="197" text-anchor="middle" font-size="7.5" fill="#cfcfcf">IR3555</text>
      <rect x="402" y="180" width="44" height="42" rx="6" fill="#161616" stroke="#3f3f3f" stroke-width="1.5"/><rect x="404" y="211" width="40" height="9" rx="2" fill="#4ade80" opacity="0.85"/><text x="424" y="197" text-anchor="middle" font-size="7.5" fill="#cfcfcf">IR3555</text>
      <rect x="452" y="180" width="44" height="42" rx="6" fill="#161616" stroke="#3f3f3f" stroke-width="1.5"/><rect x="454" y="211" width="40" height="9" rx="2" fill="#4ade80" opacity="0.85"/><text x="474" y="197" text-anchor="middle" font-size="7.5" fill="#cfcfcf">IR3555</text>
      <rect x="502" y="180" width="44" height="42" rx="6" fill="#161616" stroke="#3f3f3f" stroke-width="1.5"/><rect x="504" y="211" width="40" height="9" rx="2" fill="#4ade80" opacity="0.85"/><text x="524" y="197" text-anchor="middle" font-size="7.5" fill="#cfcfcf">IR3555</text>
      <rect x="552" y="180" width="44" height="42" rx="6" fill="#161616" stroke="#3f3f3f" stroke-width="1.5"/><rect x="554" y="211" width="40" height="9" rx="2" fill="#4ade80" opacity="0.85"/><text x="574" y="197" text-anchor="middle" font-size="7.5" fill="#cfcfcf">IR3555</text>
      <rect x="602" y="180" width="44" height="42" rx="6" fill="#161616" stroke="#3f3f3f" stroke-width="1.5"/><rect x="604" y="211" width="40" height="9" rx="2" fill="#4ade80" opacity="0.85"/><text x="624" y="197" text-anchor="middle" font-size="7.5" fill="#cfcfcf">IR3555</text>
      <rect x="652" y="180" width="44" height="42" rx="6" fill="#161616" stroke="#3f3f3f" stroke-width="1.5"/><rect x="654" y="211" width="40" height="9" rx="2" fill="#4ade80" opacity="0.85"/><text x="674" y="197" text-anchor="middle" font-size="7.5" fill="#cfcfcf">IR3555</text>
      <rect x="702" y="180" width="44" height="42" rx="6" fill="#161616" stroke="#3f3f3f" stroke-width="1.5"/><rect x="704" y="211" width="40" height="9" rx="2" fill="#4ade80" opacity="0.85"/><text x="724" y="197" text-anchor="middle" font-size="7.5" fill="#cfcfcf">IR3555</text>
      <rect x="752" y="180" width="44" height="42" rx="6" fill="#161616" stroke="#3f3f3f" stroke-width="1.5"/><rect x="754" y="211" width="40" height="9" rx="2" fill="#4ade80" opacity="0.85"/><text x="774" y="197" text-anchor="middle" font-size="7.5" fill="#cfcfcf">IR3555</text>
      <rect x="802" y="180" width="44" height="42" rx="6" fill="#161616" stroke="#3f3f3f" stroke-width="1.5"/><rect x="804" y="211" width="40" height="9" rx="2" fill="#4ade80" opacity="0.85"/><text x="824" y="197" text-anchor="middle" font-size="7.5" fill="#cfcfcf">IR3555</text>
    </g>
    <!-- Row 2 -->
    <g>
      <rect x="52"  y="230" width="44" height="42" rx="6" fill="#161616" stroke="#3f3f3f" stroke-width="1.5"/><rect x="54"  y="261" width="40" height="9" rx="2" fill="#4ade80" opacity="0.85"/><text x="74"  y="247" text-anchor="middle" font-size="7.5" fill="#cfcfcf">IR3555</text>
      <rect x="102" y="230" width="44" height="42" rx="6" fill="#161616" stroke="#3f3f3f" stroke-width="1.5"/><rect x="104" y="261" width="40" height="9" rx="2" fill="#4ade80" opacity="0.85"/><text x="124" y="247" text-anchor="middle" font-size="7.5" fill="#cfcfcf">IR3555</text>
      <rect x="152" y="230" width="44" height="42" rx="6" fill="#161616" stroke="#3f3f3f" stroke-width="1.5"/><rect x="154" y="261" width="40" height="9" rx="2" fill="#4ade80" opacity="0.85"/><text x="174" y="247" text-anchor="middle" font-size="7.5" fill="#cfcfcf">IR3555</text>
      <rect x="202" y="230" width="44" height="42" rx="6" fill="#161616" stroke="#3f3f3f" stroke-width="1.5"/><rect x="204" y="261" width="40" height="9" rx="2" fill="#4ade80" opacity="0.85"/><text x="224" y="247" text-anchor="middle" font-size="7.5" fill="#cfcfcf">IR3555</text>
      <rect x="252" y="230" width="44" height="42" rx="6" fill="#161616" stroke="#3f3f3f" stroke-width="1.5"/><rect x="254" y="261" width="40" height="9" rx="2" fill="#4ade80" opacity="0.85"/><text x="274" y="247" text-anchor="middle" font-size="7.5" fill="#cfcfcf">IR3555</text>
      <rect x="302" y="230" width="44" height="42" rx="6" fill="#161616" stroke="#3f3f3f" stroke-width="1.5"/><rect x="304" y="261" width="40" height="9" rx="2" fill="#4ade80" opacity="0.85"/><text x="324" y="247" text-anchor="middle" font-size="7.5" fill="#cfcfcf">IR3555</text>
      <rect x="352" y="230" width="44" height="42" rx="6" fill="#161616" stroke="#3f3f3f" stroke-width="1.5"/><rect x="354" y="261" width="40" height="9" rx="2" fill="#4ade80" opacity="0.85"/><text x="374" y="247" text-anchor="middle" font-size="7.5" fill="#cfcfcf">IR3555</text>
      <rect x="402" y="230" width="44" height="42" rx="6" fill="#161616" stroke="#3f3f3f" stroke-width="1.5"/><rect x="404" y="261" width="40" height="9" rx="2" fill="#4ade80" opacity="0.85"/><text x="424" y="247" text-anchor="middle" font-size="7.5" fill="#cfcfcf">IR3555</text>
      <rect x="452" y="230" width="44" height="42" rx="6" fill="#161616" stroke="#3f3f3f" stroke-width="1.5"/><rect x="454" y="261" width="40" height="9" rx="2" fill="#4ade80" opacity="0.85"/><text x="474" y="247" text-anchor="middle" font-size="7.5" fill="#cfcfcf">IR3555</text>
      <rect x="502" y="230" width="44" height="42" rx="6" fill="#161616" stroke="#3f3f3f" stroke-width="1.5"/><rect x="504" y="261" width="40" height="9" rx="2" fill="#4ade80" opacity="0.85"/><text x="524" y="247" text-anchor="middle" font-size="7.5" fill="#cfcfcf">IR3555</text>
      <rect x="552" y="230" width="44" height="42" rx="6" fill="#161616" stroke="#3f3f3f" stroke-width="1.5"/><rect x="554" y="261" width="40" height="9" rx="2" fill="#4ade80" opacity="0.85"/><text x="574" y="247" text-anchor="middle" font-size="7.5" fill="#cfcfcf">IR3555</text>
      <rect x="602" y="230" width="44" height="42" rx="6" fill="#161616" stroke="#3f3f3f" stroke-width="1.5"/><rect x="604" y="261" width="40" height="9" rx="2" fill="#4ade80" opacity="0.85"/><text x="624" y="247" text-anchor="middle" font-size="7.5" fill="#cfcfcf">IR3555</text>
      <rect x="652" y="230" width="44" height="42" rx="6" fill="#161616" stroke="#3f3f3f" stroke-width="1.5"/><rect x="654" y="261" width="40" height="9" rx="2" fill="#4ade80" opacity="0.85"/><text x="674" y="247" text-anchor="middle" font-size="7.5" fill="#cfcfcf">IR3555</text>
      <rect x="702" y="230" width="44" height="42" rx="6" fill="#161616" stroke="#3f3f3f" stroke-width="1.5"/><rect x="704" y="261" width="40" height="9" rx="2" fill="#4ade80" opacity="0.85"/><text x="724" y="247" text-anchor="middle" font-size="7.5" fill="#cfcfcf">IR3555</text>
      <rect x="752" y="230" width="44" height="42" rx="6" fill="#161616" stroke="#3f3f3f" stroke-width="1.5"/><rect x="754" y="261" width="40" height="9" rx="2" fill="#4ade80" opacity="0.85"/><text x="774" y="247" text-anchor="middle" font-size="7.5" fill="#cfcfcf">IR3555</text>
      <rect x="802" y="230" width="44" height="42" rx="6" fill="#161616" stroke="#3f3f3f" stroke-width="1.5"/><rect x="804" y="261" width="40" height="9" rx="2" fill="#4ade80" opacity="0.85"/><text x="824" y="247" text-anchor="middle" font-size="7.5" fill="#cfcfcf">IR3555</text>
    </g>
  </g>

  <text x="450" y="296" text-anchor="middle" font-size="13" fill="#ccc">32 × IR3555 power stages &#8212; each carries only <tspan fill="#4ade80" font-weight="700">~12.5A</tspan></text>

  <!-- Capacity bar: one stage -->
  <text x="160" y="328" font-size="12" fill="#999">Per-stage current vs. rating</text>
  <rect x="160" y="336" width="580" height="44" rx="8" fill="#242424" stroke="#555" stroke-width="1.5"/>
  <rect x="160" y="336" width="121" height="44" rx="8" fill="#4ade80" opacity="0.9"/>
  <text x="220" y="363" text-anchor="middle" font-size="13" font-weight="700" fill="#0f0f0f">~12.5A</text>
  <text x="515" y="363" text-anchor="middle" font-size="14" font-weight="700" fill="#4ade80">&#8776; 47.5A headroom</text>

  <!-- 21% tick + rating end labels -->
  <line x1="281" y1="330" x2="281" y2="388" stroke="#4ade80" stroke-width="1.5" stroke-dasharray="3 3"/>
  <text x="281" y="402" text-anchor="middle" font-size="11" fill="#4ade80">~21%</text>
  <text x="740" y="402" text-anchor="end" font-size="12" fill="#ccc">60A rated</text>

  <!-- Big takeaway -->
  <text x="450" y="446" text-anchor="middle" font-size="24" font-weight="700" fill="#4ade80">Every stage at ~21% of rating.</text>
  <text x="450" y="470" text-anchor="middle" font-size="13" fill="#999">32 stages × 60A = 1,920A capacity for a ~400A load &#8212; enormous headroom.</text>

  <!-- Watermark -->
  <text x="892" y="513" text-anchor="end" fill="#ffffff" opacity="0.55" font-size="12">markspcparts.com</text>
</svg>
