<svg xmlns="http://www.w3.org/2000/svg" viewBox="0 0 900 520" font-family="system-ui, -apple-system, sans-serif">

  <!-- Background -->
  <rect width="900" height="520" fill="#0f0f0f"/>

  <!-- Labels top -->
  <text x="110" y="60" text-anchor="middle" fill="#999" font-size="15">Airflow</text>
  <text x="370" y="60" text-anchor="middle" fill="#999" font-size="15">Windbreaker</text>

  <!-- Case fan box -->
  <rect x="30" y="80" width="160" height="160" rx="10" fill="#2a2a2a" stroke="#555" stroke-width="1.5"/>
  <text x="110" y="168" text-anchor="middle" fill="#ccc" font-size="16">Case fan</text>

  <!-- Green arrows -->
  <defs>
    <marker id="arrowGreen" markerWidth="8" markerHeight="8" refX="6" refY="3" orient="auto">
      <path d="M0,0 L0,6 L8,3 z" fill="#4ade80"/>
    </marker>
  </defs>
  <line x1="190" y1="115" x2="330" y2="115" stroke="#4ade80" stroke-width="2.5" marker-end="url(#arrowGreen)"/>
  <line x1="190" y1="160" x2="330" y2="160" stroke="#4ade80" stroke-width="2.5" marker-end="url(#arrowGreen)"/>
  <line x1="190" y1="205" x2="330" y2="205" stroke="#4ade80" stroke-width="2.5" marker-end="url(#arrowGreen)"/>

  <!-- DIMM.2 card -->
  <rect x="333" y="80" width="70" height="270" rx="6" fill="#3d2b1a" stroke="#c8763a" stroke-width="1.5"/>

  <!-- M.2 #1 box -->
  <rect x="342" y="100" width="52" height="40" rx="4" fill="#1a1a1a" stroke="#c84b4b" stroke-width="1.5"/>
  <text x="368" y="125" text-anchor="middle" fill="#f87171" font-size="11">M.2 #1</text>

  <!-- M.2 #2 box -->
  <rect x="342" y="152" width="52" height="40" rx="4" fill="#1a1a1a" stroke="#c84b4b" stroke-width="1.5"/>
  <text x="368" y="177" text-anchor="middle" fill="#f87171" font-size="11">M.2 #2</text>

  <!-- DIMM.2 label rotated -->
  <text x="368" y="310" text-anchor="middle" fill="#e8a96a" font-size="13" font-weight="600" transform="rotate(-90, 368, 310)">DIMM.2</text>

  <!-- DIMM slots area -->
  <rect x="403" y="80" width="460" height="270" rx="8" fill="#0d2b1e" stroke="#2d6a4f" stroke-width="1.5"/>
  <text x="633" y="120" text-anchor="middle" fill="#4ade80" font-size="18" font-weight="700">12× DIMM slots</text>
  <text x="633" y="145" text-anchor="middle" fill="#6ee7b7" font-size="13">RAM installed here</text>

  <!-- DIMM slot bars -->
  <rect x="420" y="165" width="28" height="90" rx="3" fill="#1a3d2e" stroke="#2d6a4f" stroke-width="1"/>
  <rect x="455" y="165" width="28" height="90" rx="3" fill="#1a3d2e" stroke="#2d6a4f" stroke-width="1"/>
  <rect x="490" y="165" width="28" height="90" rx="3" fill="#1a3d2e" stroke="#2d6a4f" stroke-width="1"/>
  <rect x="525" y="165" width="28" height="90" rx="3" fill="#1a3d2e" stroke="#2d6a4f" stroke-width="1"/>
  <rect x="560" y="165" width="28" height="90" rx="3" fill="#1a3d2e" stroke="#2d6a4f" stroke-width="1"/>
  <rect x="595" y="165" width="28" height="90" rx="3" fill="#1a3d2e" stroke="#2d6a4f" stroke-width="1"/>
  <rect x="630" y="165" width="28" height="90" rx="3" fill="#1a3d2e" stroke="#2d6a4f" stroke-width="1"/>
  <rect x="665" y="165" width="28" height="90" rx="3" fill="#1a3d2e" stroke="#2d6a4f" stroke-width="1"/>
  <rect x="700" y="165" width="28" height="90" rx="3" fill="#1a3d2e" stroke="#2d6a4f" stroke-width="1"/>
  <rect x="735" y="165" width="28" height="90" rx="3" fill="#1a3d2e" stroke="#2d6a4f" stroke-width="1"/>
  <rect x="770" y="165" width="28" height="90" rx="3" fill="#1a3d2e" stroke="#2d6a4f" stroke-width="1"/>
  <rect x="805" y="165" width="28" height="90" rx="3" fill="#1a3d2e" stroke="#2d6a4f" stroke-width="1"/>

  <!-- Thermometer icon -->
  <circle cx="633" cy="290" r="10" fill="none" stroke="#f87171" stroke-width="2"/>
  <rect x="629" y="265" width="8" height="28" rx="4" fill="none" stroke="#f87171" stroke-width="2"/>
  <rect x="631" y="276" width="4" height="18" rx="2" fill="#f87171"/>
  <circle cx="633" cy="290" r="8" fill="#f87171"/>
  <text x="633" y="320" text-anchor="middle" fill="#f87171" font-size="13">Overheating</text>

  <!-- Blocked airflow dashed lines with X -->
  <defs>
    <marker id="xEnd" markerWidth="10" markerHeight="10" refX="5" refY="5" orient="auto">
    </marker>
  </defs>

  <!-- Dashed blocked lines -->
  <line x1="403" y1="115" x2="620" y2="115" stroke="#f87171" stroke-width="1.8" stroke-dasharray="6,4"/>
  <line x1="403" y1="155" x2="620" y2="155" stroke="#f87171" stroke-width="1.8" stroke-dasharray="6,4"/>
  <line x1="403" y1="210" x2="620" y2="210" stroke="#f87171" stroke-width="1.8" stroke-dasharray="6,4"/>

  <!-- X marks -->
  <text x="415" y="111" fill="#f87171" font-size="14" font-weight="bold">✕</text>
  <text x="415" y="151" fill="#f87171" font-size="14" font-weight="bold">✕</text>
  <text x="415" y="206" fill="#f87171" font-size="14" font-weight="bold">✕</text>

  <!-- "No airflow reaches here" label -->
  <text x="720" y="108" text-anchor="middle" fill="#999" font-size="13">No airflow reaches here</text>

  <!-- Motherboard PCB -->
  <rect x="30" y="368" width="840" height="32" rx="5" fill="#2a2a2a" stroke="#555" stroke-width="1.5"/>
  <text x="450" y="390" text-anchor="middle" fill="#aaa" font-size="14">Motherboard PCB</text>

  <!-- Legend -->
  <line x1="50" y1="440" x2="100" y2="440" stroke="#4ade80" stroke-width="2.5" marker-end="url(#arrowGreen)"/>
  <text x="110" y="445" fill="#aaa" font-size="13">Good airflow</text>

  <line x1="280" y1="440" x2="330" y2="440" stroke="#f87171" stroke-width="1.8" stroke-dasharray="6,4"/>
  <text x="340" y="445" fill="#aaa" font-size="13">Blocked airflow</text>

</svg>
